HIERARCHY
ROOT Hips
{
  OFFSET 0 0 0
  CHANNELS 6 Xposition Yposition Zposition Zrotation Yrotation Xrotation
  JOINT LeftThigh
  {
    OFFSET 8.409438 0 -5.917753
    CHANNELS 3 Zrotation Yrotation Xrotation
    JOINT LeftLeg
    {
      OFFSET 0 0 -42.358652
      CHANNELS 3 Zrotation Yrotation Xrotation
      JOINT LeftFoot
      {
        OFFSET 0 0 -39.357303
        CHANNELS 3 Zrotation Yrotation Xrotation
      }
    }
  }
  JOINT RightThigh
  {
    OFFSET -8.409438 0 -5.917753
    CHANNELS 3 Zrotation Yrotation Xrotation
    JOINT RightLeg
    {
      OFFSET 0 0 -42.358652
      CHANNELS 3 Zrotation Yrotation Xrotation
      JOINT RightFoot
      {
        OFFSET 0 0 -39.357303
        CHANNELS 3 Zrotation Yrotation Xrotation
      }
    }
  }
  JOINT SpineLow
  {
    OFFSET 0 0 4.719101
    CHANNELS 3 Zrotation Yrotation Xrotation
    JOINT SpineMid
    {
      OFFSET 0 0 12.899191
      CHANNELS 3 Zrotation Yrotation Xrotation
      JOINT Chest
      {
        OFFSET 0 0 12.899191
        CHANNELS 3 Zrotation Yrotation Xrotation
        JOINT LeftShoulder
        {
          OFFSET 7.550562 1.41573 9.438202
          CHANNELS 3 Zrotation Yrotation Xrotation
          JOINT LeftArm
          {
            OFFSET 9.155056 0 4.247191
            CHANNELS 3 Zrotation Yrotation Xrotation
            JOINT LeftForearm
            {
              OFFSET 0 0 25.771955
              CHANNELS 3 Zrotation Yrotation Xrotation
              JOINT LeftHand
              {
                OFFSET 0 0 25.197169
                CHANNELS 3 Zrotation Yrotation Xrotation
              }
            }
          }
        }
        JOINT RightShoulder
        {
          OFFSET -7.550562 1.41573 9.438202
          CHANNELS 3 Zrotation Yrotation Xrotation
          JOINT RightArm
          {
            OFFSET -9.155056 0 4.247191
            CHANNELS 3 Zrotation Yrotation Xrotation
            JOINT RightForearm
            {
              OFFSET 0 0 -25.771955
              CHANNELS 3 Zrotation Yrotation Xrotation
              JOINT RightHand
              {
                OFFSET 0 0 -25.197169
                CHANNELS 3 Zrotation Yrotation Xrotation
              }
            }
          }
        }
        JOINT Neck
        {
          OFFSET 0 0 15.101124
          CHANNELS 3 Zrotation Yrotation Xrotation
          JOINT Head
          {
            OFFSET 0 0 11.325843
            CHANNELS 3 Zrotation Yrotation Xrotation
            End Site
            {
              OFFSET 0 0 14.157303
            }
          }
        }
      }
    }
  }
}
MOTION
Frames: 13
Frame Time: 0.0
0.0  93.25843  0.0  -2.750435  -51.652509  -87.732606  15.633813  -15.169101  -0.086477  15.952547  -2.013496  18.489565  13.522068  2.657834  6.324084  14.105082  -3.92181  -18.057947  -4.055884  11.367085  12.55776  8.910014  1.551222  1.375965  5.31476  0.017164  -1.399152  14.52089  0.352991  -3.799518  14.52089  0.352991  -3.799519  -13.448915  12.541084  9.199579  -162.352948  23.568494  -134.602274  4.925308  -18.132188  94.922806  105.011215  16.707904  -5.843154  0.232525  -14.689557  26.178046  95.492219  28.85103  49.419665  11.472862  -40.110024  -108.645836  58.795398  -0.74549  8.971997  2.09755  3.915613  18.235449  1.457034  3.002503  13.658006  
0.0  93.25843  0.0  -2.900617  -56.038289  -87.753795  16.69797  -14.977209  1.244944  18.543155  -2.306845  18.082402  13.305976  2.792055  6.324825  15.608622  -4.248014  -17.535538  -3.494939  10.965495  11.357417  9.062841  1.318648  1.279385  5.240845  0.095148  -1.420463  14.31435  0.565299  -3.841299  14.314351  0.565299  -3.841299  -12.845926  12.326598  9.704861  -159.342007  22.018893  -135.60792  3.981156  -18.830719  94.256619  104.973559  17.147753  -11.116939  0.312255  -14.254744  26.550744  94.841876  28.72835  50.440047  14.482019  -37.395114  -113.026562  59.132203  0.539802  4.498512  4.512928  3.553994  18.310299  3.280459  2.803877  13.702972  
0.0  93.25843  0.0  -3.043321  -59.248284  -87.771309  17.280261  -14.740003  2.093491  20.070812  -2.608923  17.900842  13.07041  2.950121  6.336075  16.16287  -4.55265  -16.800599  -2.509899  10.465366  10.294353  9.092614  1.195931  1.177029  4.986238  0.113674  -1.439742  13.61739  0.604951  -3.892917  13.61739  0.604951  -3.892917  -12.326568  12.496926  9.760439  -157.414576  21.270094  -137.023212  2.800312  -18.467595  92.721541  104.746746  16.9576  -17.604563  0.33653  -13.323422  27.38102  93.157705  28.952633  51.03886  17.851586  -34.661189  -116.88687  60.116849  2.758938  -0.990951  6.96446  3.464031  18.437557  5.122642  2.81162  13.786632  
0.0  93.25843  0.0  -3.070657  -61.174579  -87.620354  17.595724  -14.545278  2.191118  20.275645  -2.654138  17.947447  13.220142  3.035627  6.466947  16.275978  -4.654691  -16.069174  -1.748783  9.8597  9.130591  8.858945  1.30997  1.09331  4.630066  0.098246  -1.556217  12.643741  0.564365  -4.217192  12.643741  0.564365  -4.217191  -12.577523  13.111453  9.488668  -156.510636  21.513537  -138.85503  1.75006  -17.861451  89.829734  104.457746  15.713362  -22.921033  -0.136579  -12.264606  29.002349  90.409967  29.599847  51.493218  21.023824  -32.065816  -119.958616  60.244437  5.412937  -7.9742  9.051474  3.48952  18.878593  6.686164  2.900821  14.106606  
0.0  93.25843  0.0  -2.755447  -61.758933  -87.603008  17.50349  -14.315039  1.832471  19.561112  -2.479075  18.112994  13.795167  3.034879  6.652619  16.481215  -4.281336  -15.546715  -2.028551  9.239801  7.803172  8.44297  1.45339  0.931493  4.142405  0.116049  -1.667686  11.308926  0.600928  -4.523368  11.308927  0.600928  -4.523368  -13.158811  14.022966  8.939365  -156.745438  22.899061  -140.50256  0.738796  -18.169252  85.317695  104.353856  13.978327  -24.54973  -0.910285  -11.287903  30.673597  87.228493  30.392203  52.091147  23.328652  -28.89306  -123.252413  58.325315  6.94833  -15.134197  10.873152  3.535132  19.282879  8.05015  2.999149  14.400156  
0.0  93.25843  0.0  -2.462726  -61.344194  -87.740471  17.211462  -14.333468  1.392088  18.639171  -2.242433  18.354565  14.378622  3.016679  6.841738  16.562196  -3.819549  -14.888533  -2.595415  8.776893  6.618399  8.283362  1.413769  0.865243  3.635035  0.210281  -1.669213  9.916507  0.823389  -4.519437  9.916507  0.823389  -4.519437  -14.266341  14.667628  8.230897  -157.42068  25.209114  -141.474957  0.852326  -19.067755  79.27768  104.070344  13.139036  -22.087746  -2.040612  -10.809153  31.639932  83.892541  30.733155  52.816304  21.794775  -24.957044  -125.708817  53.654921  6.417041  -22.04586  12.172112  3.44715  19.290915  9.028135  2.974587  14.402035  
0.0  93.25843  0.0  -2.203667  -60.14072  -87.968208  17.072059  -14.601964  0.870216  17.869374  -1.970718  18.676042  15.422185  3.397422  7.748967  16.414841  -3.393594  -14.049512  -2.824153  8.476701  5.858791  8.080555  1.301356  0.818268  3.228358  0.341051  -1.611198  8.797966  1.144601  -4.349951  8.797967  1.144601  -4.349951  -16.400837  15.087291  7.266087  -158.29185  28.556578  -142.099241  2.51362  -19.034353  71.670647  102.848679  13.78314  -16.953585  -4.139867  -10.527537  32.509543  80.663108  30.546144  53.598349  20.304593  -21.205867  -127.747783  51.059701  6.481069  -26.367251  12.765535  3.321807  19.151779  9.478387  2.896385  14.297928  
0.0  93.25843  0.0  -1.871365  -58.139801  -88.270392  17.205498  -14.98573  0.245604  17.190876  -1.73778  19.009966  15.262823  3.257085  7.769187  16.117027  -2.860196  -13.398526  -3.234277  8.192539  5.515639  7.736554  1.228867  0.785257  2.782394  0.411771  -1.600563  7.575215  1.307191  -4.3215  7.575215  1.307191  -4.3215  -18.487475  15.374926  5.971965  -160.187128  32.564285  -143.377887  4.805599  -16.316336  62.758133  100.959159  14.830978  -11.100498  -6.152074  -9.516426  33.746909  77.354765  29.619482  53.55629  18.575353  -19.422017  -128.656442  52.213917  6.832217  -28.801808  13.213935  3.38213  19.348484  9.812143  2.960228  14.442143  
0.0  93.25843  0.0  -1.592631  -55.892582  -88.553184  18.032765  -15.404624  -0.437605  16.415196  -1.644079  19.226218  14.884622  3.111316  7.813817  15.901329  -2.293788  -13.057434  -4.182114  7.966221  5.562886  7.20832  1.145768  0.767548  2.221065  0.463967  -1.524982  6.039863  1.406348  -4.122321  6.039864  1.406348  -4.122321  -19.508108  16.011857  5.008527  -163.034348  37.273683  -143.632248  6.926416  -11.021688  52.140546  99.201579  14.344638  -6.542945  -6.979943  -8.544446  34.000592  74.37943  27.683166  53.675517  16.892537  -18.652779  -127.153267  54.151183  9.224173  -31.712842  14.047162  3.620587  19.421435  10.42928  3.167735  14.487201  
0.0  93.25843  0.0  -1.62135  -53.272953  -88.860475  19.115452  -16.032944  -0.96314  15.466962  -1.646344  19.268755  14.30882  2.933666  7.812461  14.678739  -1.928609  -12.644738  -4.551959  7.65437  5.959287  7.061628  1.137314  0.842754  1.578973  0.445363  -1.349894  4.290074  1.30442  -3.659356  4.290074  1.30442  -3.659356  -20.101983  17.368617  4.25407  -167.769264  42.843855  -142.135443  8.395732  -3.238793  37.094745  98.387273  11.64737  -4.633552  -6.545382  -7.527081  33.173453  71.263811  25.385402  54.193328  16.151874  -20.476545  -126.686365  56.14942  10.484016  -34.836171  14.780178  4.027537  19.377127  10.965899  3.495939  14.439565  
0.0  93.25843  0.0  -2.340335  -51.09615  -89.298593  20.913758  -17.252433  -1.003612  14.291147  -1.617238  19.1276  13.893681  2.762467  7.946943  13.295702  -2.05411  -11.533169  -4.383461  7.218798  6.333241  7.005258  1.156867  0.891078  0.996437  0.283787  -1.23566  2.708477  0.826216  -3.365363  2.708477  0.826216  -3.365363  -18.946855  20.281087  6.424605  -174.054301  49.079842  -140.674865  7.301726  6.03531  20.770066  99.782097  8.186777  -2.16558  -5.958638  -6.40735  32.607589  68.417511  22.754076  55.114468  17.616567  -22.463558  -127.305387  57.159516  12.35866  -35.544339  15.40948  4.328619  20.038381  11.424181  3.759389  14.923842  
0.0  93.25843  0.0  -2.995584  -47.499499  -89.781132  21.376118  -18.386273  -0.974938  12.883569  -1.613066  18.678604  13.330531  2.480887  7.892143  10.791361  -2.277169  -10.375894  -4.215323  6.95165  6.686113  6.857269  1.215278  0.916391  0.164074  0.141578  -1.171415  0.441508  0.394828  -3.201004  0.441508  0.394828  -3.201004  -19.764244  25.108391  7.15944  -177.148325  51.881058  -142.583377  10.983763  7.062196  8.303641  98.789138  5.185247  4.299912  -5.42907  -5.016582  32.013835  66.196787  19.565666  55.407446  19.199863  -24.255569  -127.854179  56.628252  12.959016  -34.923026  15.859691  4.467098  20.872369  11.752358  3.900543  15.542956  
0.0  93.25843  0.0  -3.664382  -45.224436  -89.897692  22.819428  -19.31971  -1.140428  10.698324  -1.316103  17.275874  13.745128  1.963839  8.549879  10.274437  -2.626898  -9.758439  -4.330798  6.890754  7.211609  6.647179  1.3296  0.966229  -0.492609  0.030667  -1.093015  -1.347567  0.061544  -2.988131  -1.347567  0.061544  -2.98813  -24.556441  27.964294  2.055933  179.394162  43.83424  -149.47421  15.796997  1.00091  -3.082628  93.953732  8.194849  2.992357  -5.279791  -3.940731  31.488267  64.619183  17.453783  55.152017  19.530668  -25.224735  -127.972016  54.974575  12.763987  -33.344736  16.209157  4.661593  21.197398  12.005504  4.067633  15.778918  
